<svg xmlns="http://www.w3.org/2000/svg" width="42.137" height="33.047" viewBox="0 0 42.137 33.047" fill=' #fff'>
  <path id="filter" d="M40.817,0H2.31A1.935,1.935,0,0,0,.7.751,1.135,1.135,0,0,0,.841,2.212L14.948,17.418l.015.015a2.641,2.641,0,0,1,.791,1.83v12.4a1.236,1.236,0,0,0,.524.98,2.112,2.112,0,0,0,1.278.407,2.357,2.357,0,0,0,.71-.109l7.927-2.313a1.388,1.388,0,0,0,1.182-1.3V19.263a2.641,2.641,0,0,1,.791-1.83l.015-.015L42.287,2.211A1.134,1.134,0,0,0,42.43.751,1.935,1.935,0,0,0,40.817,0ZM26.308,16.287a4.279,4.279,0,0,0-1.064,2.976l-.4,9.3-6.575,1.7v-11a3.639,3.639,0,0,0-.71-2.824L3.8,1.677H39.69Zm-.4-.4" transform="translate(-0.496 0)" fill="#fff"/>
</svg>
